<svg width="16" height="16" viewBox="0 0 16 16" fill="none" xmlns="http://www.w3.org/2000/svg">
<g clip-path="url(#clip0_201_4)">
<path d="M4.49978 1.78369C4.99003 1.78369 5.87625 2.01819 7.31375 3.43394L8.0265 4.13569L8.7285 3.42269C9.7265 2.40869 10.7885 1.77894 11.5 1.77894C12.4595 1.77894 13.2158 2.10719 13.9533 2.84294C14.648 3.53619 15.0313 4.45794 15.0313 5.43844C15.0318 6.41944 14.6493 7.34195 13.9468 8.0427C13.8895 8.1007 10.8688 11.3599 8.33802 14.0912C8.21877 14.2044 8.08252 14.2212 8.01003 14.2212C7.93853 14.2212 7.80378 14.2052 7.68503 14.0947C7.06828 13.4087 2.59828 8.43845 2.07855 7.9192C1.3828 7.2252 1.00003 6.30269 1.00003 5.32194C1.00026 4.34144 1.38301 3.41994 2.07878 2.72594C2.75526 2.04994 3.54728 1.78369 4.49978 1.78369V1.78369ZM4.49975 0.783692C3.304 0.783692 2.24975 1.14143 1.372 2.01819C-0.457252 3.84269 -0.457252 6.80145 1.372 8.62695C1.89425 9.14945 6.96348 14.7885 6.96348 14.7885C7.25223 15.0775 7.6315 15.221 8.00973 15.221C8.38825 15.221 8.76599 15.0775 9.05524 14.7885C9.05524 14.7885 14.6002 8.80371 14.6592 8.74393C16.488 6.91768 16.488 3.95893 14.6592 2.13444C13.7512 1.22819 12.737 0.778442 11.4997 0.778442C10.3177 0.778442 8.99974 1.72094 8.01523 2.72094C6.99973 1.72118 5.72248 0.783692 4.49973 0.783692H4.49975Z" fill="#4C3D40"/>
</g>
<defs>
<clipPath id="clip0_201_4">
<rect width="16" height="16" fill="white"/>
</clipPath>
</defs>
</svg>
