<svg width="24" height="24" viewBox="0 0 24 24" fill="none" xmlns="http://www.w3.org/2000/svg">
<path d="M0 8.94844V8.67657C0 5.4 2.36813 2.60531 5.59688 2.06719C7.69219 1.71141 9.90938 2.40797 11.4375 3.93844L12 4.5L12.5203 3.93844C14.0906 2.40797 16.2656 1.71141 18.4031 2.06719C21.6328 2.60531 24 5.4 24 8.67657V8.94844C24 10.8938 23.1937 12.7547 21.7687 14.0813L13.2984 21.9891C12.9469 22.3172 12.4828 22.5 12 22.5C11.5172 22.5 11.0531 22.3172 10.7016 21.9891L2.23078 14.0813C0.807656 12.7547 0 10.8938 0 8.94844Z" fill="black"/>
</svg>
