<svg width="24" height="24" viewBox="0 0 24 24" fill="none" xmlns="http://www.w3.org/2000/svg">
<g clip-path="url(#clip0_15_5)">
<path d="M12 1.5C5.37187 1.5 0.00125732 5.86406 0.00125732 11.25C0.00125732 13.4827 0.934539 15.5273 2.48141 17.1656C1.78391 19.0172 0.331257 20.5819 0.30782 20.5992C-0.00272706 20.9273 -0.0847583 21.4078 0.091023 21.818C0.272711 22.2281 0.674054 22.5 1.12499 22.5C4.00781 22.5 6.23906 21.293 7.64531 20.332C8.95781 20.7563 10.4672 21 12 21C18.6281 21 23.9578 16.6345 23.9578 11.25C23.9578 5.86547 18.6281 1.5 12 1.5ZM12.0047 18.75C10.7508 18.75 9.51468 18.5566 8.33062 18.1819L7.26421 17.8479L6.35015 18.4924C5.68218 18.9668 4.76202 19.4946 3.65484 19.8518C4.00054 19.2837 4.32843 18.6448 4.58671 17.9651L5.08452 16.6526L4.11796 15.6274C3.2728 14.7234 2.25327 13.2281 2.25327 11.25C2.25327 7.11328 6.62437 3.75 12.0033 3.75C17.3822 3.75 21.7533 7.11328 21.7533 11.25C21.7533 15.3867 17.3812 18.75 12.0047 18.75Z" fill="black"/>
</g>
<defs>
<clipPath id="clip0_15_5">
<rect width="24" height="24" fill="white"/>
</clipPath>
</defs>
</svg>
